#!OML:ASF F:\VICON\USERDATA\INSTALL\rory3\rory3.ASF
:FULLY-SPECIFIED
:DEGREES
44
root -0.05615069200529238 17.378427235939622 38.43911056344034 0.93003813076569 7.681137168779527 -0.9451798830000335
lfemur -19.259699498261625 -3.803449886630355 -25.569784755675705
ltibia 42.32311771498497
lfoot -7.334746061739284 -4.811075342809609
ltoes -10.824789388146868
rfemur -23.332823126785065 -6.649790359461495 22.72567950254849
rtibia 112.35876937852305
rfoot 15.133898472280329 -6.255594735492146
rtoes 18.711196036353194
lowerback 15.491126646143714 0.9756197432823817 0.238676574378764
upperback -0.4969077580072647 1.5183913958022517 0.5325004400251718
thorax -9.633711450959613 0.6966731449032836 0.23628742486067855
lowerneck -21.05695760325107 -4.622725478704558 -1.6035697859132552
upperneck 13.284650963322745 -6.556487003814962 3.576137423668495
head 7.72818752694208 -2.820349157058236 0.7922739122413057
lclavicle -1.789591523963109e-15 -2.856715376112043e-15
lhumerus -46.50053521393872 -16.389720949204822 99.127695419235
lradius 113.1459023638607
lwrist 35.279439764698296
lhand -24.600990540435514 1.8728152217756069
lfingers nan
lthumb 1.892416332412707 31.840208017406184
rclavicle -1.9459529683223945e-15 -2.977125367760542e-15
rhumerus -46.975711210949555 11.781187214800497 -99.1820537296586
rradius 110.43068227825354
rwrist -10.379152866831989
rhand -16.603234332446068 38.95633302435968
rfingers nan
rthumb 9.949919550234952 9.522360366506174
45
root -0.016875606032581286 17.338998531122353 40.91279692771358 1.3523645589124782 7.429771943013426 1.3579814576153875
lfemur -13.962845416526763 -4.235514160716699 -28.244813115094168
ltibia 43.257025361852506
lfoot -7.163063019349673 -4.778141878651512
ltoes -12.904662926883569
rfemur -28.893338097411 -7.43150264290348 19.997183336147828
rtibia 115.83455623444618
rfoot 13.347836180982643 -1.5258362681707585
rtoes 13.47960146786022
lowerback 15.852472877263146 0.6110652039735944 -2.1083524569389507
upperback -0.24347585285944773 0.5866421149286106 -0.22267719853840906
thorax -9.655222163980778 0.3394652725979705 1.3754512458147001
lowerneck -21.470715597590893 -4.285175922875684 -1.5732048458002499
upperneck 13.167282970845424 -6.05170610673519 3.5169156203967695
head 7.7321908774561905 -2.5819127258469616 0.804868151856339
lclavicle -1.800985379861021e-15 -2.8617342040334743e-15
lhumerus -42.89018241824903 -17.3684167299456 98.7409111137156
lradius 114.39811959546203
lwrist 33.940105129087314
lhand -24.582628694165752 1.9886197592506223
lfingers nan
lthumb 1.9469102034325245 32.00553282422953
rclavicle -1.9521306682182613e-15 -2.979071028177428e-15
rhumerus -48.55035038270683 10.576648581733966 -99.798336567877
rradius 109.47109489162354
rwrist -10.42698046292802
rhand -16.585361193387428 38.96728412142064
rfingers nan
rthumb 9.94005229196593 9.643257601138634
46
root 0.04752123230480873 17.39150974491945 41.981227683224525 1.6759193569813209 6.913696581528987 2.744543924227073
lfemur -7.630174349100851 -4.645356243781863 -29.830662020167757
ltibia 41.6803670851433
lfoot -5.298419302621014 -4.9690377632824525
ltoes -15.332106093631351
rfemur -33.48038501493838 -7.566985377644684 18.707992350833337
rtibia 114.99086813909351
rfoot 11.86071599108243 1.0080324792334423
rtoes 7.846490337068618
lowerback 15.906496144044224 0.16074551142936233 -3.605591477552462
upperback -0.11939815515412822 -0.22999633813913434 -0.46279301973929754
thorax -9.545772298681525 0.009765555244996449 2.3116774443982067
lowerneck -21.734605522108964 -3.898654314329808 -1.6332782541676685
upperneck 13.237503055694376 -5.469151481867283 3.412150180840893
head 7.784706945134022 -2.3043877632373126 0.812113374574274
lclavicle -1.8138186209580532e-15 -2.865834934530089e-15
lhumerus -39.851754590520905 -18.31104189845823 98.29675808939375
lradius 115.75002453877411
lwrist 33.10409930825958
lhand -24.69129352373321 2.0018228261887465
lfingers nan
lthumb 1.9088251422341362 32.09657732867463
rclavicle -1.960150504829071e-15 -2.9811106416119342e-15
rhumerus -50.36886885134578 9.55917916608784 -100.19421283091584
rradius 109.12896598982806
rwrist -10.76103046459272
rhand -16.53146683229551 39.02402267133623
rfingers nan
rthumb 9.95885999919623 9.742635962098134
47
root 0.10910050375403421 17.515960346877332 42.72056485148091 2.3527802092964403 6.3339503054687825 2.1257123267613744
lfemur -2.0166600250072957 -4.988339545088791 -29.36483068674157
ltibia 38.86948801317244
lfoot -2.888104306465747 -6.433657821758139
ltoes -17.560267106535704
rfemur -38.11547203055133 -7.017262243732317 20.172919799193274
rtibia 111.42566274148157
rfoot 10.44506522154148 1.579045147773562
rtoes 4.390661343039091
lowerback 15.575081601897402 -0.3690121165702226 -3.3281731218776223
upperback -0.3388332965567319 -0.8171151210227232 0.10727160077574704
thorax -9.503326549193071 -0.2682856299736792 2.8180586775337773
lowerneck -21.771353517483618 -3.4560925703228293 -1.7560720076355172
upperneck 13.513518327903933 -4.789631822469531 3.2559963245287022
head 7.844354934035842 -1.998965832976574 0.8178345265863769
lclavicle -1.8268121723947634e-15 -2.8711849058815072e-15
lhumerus -37.594748902960035 -19.10750182584757 97.83374952015315
lradius 116.97717780728085
lwrist 33.19759533631989
lhand -24.777414777853846 2.1546192848604866
lfingers nan
lthumb 1.7971657783819448 32.16887573371505
rclavicle -1.9648749000821656e-15 -2.981325723016368e-15
rhumerus -52.35586615928086 8.794917647567354 -100.33693364492493
rradius 109.35529007770414
rwrist -11.39193711323419
rhand -16.476512645468958 39.064160500929425
rfingers nan
rthumb 9.977267606160138 9.773559245183973
